<svg width="18" height="21" viewBox="0 0 18 21" fill="none" xmlns="http://www.w3.org/2000/svg">
<g id="image" clip-path="url(#clip0_1_828)">
<path id="Vector" fill-rule="evenodd" clip-rule="evenodd" d="M9.0002 6.31034C8.75045 6.30947 8.50678 6.23329 8.301 6.09175C8.09523 5.95021 7.93694 5.7499 7.8468 5.51698C7.75667 5.28407 7.73889 5.02938 7.79578 4.78619C7.85267 4.54301 7.98159 4.32264 8.16569 4.15388C8.34979 3.98512 8.58052 3.87581 8.82772 3.84024C9.07493 3.80467 9.32711 3.84449 9.55133 3.9545C9.77554 4.06451 9.96136 4.2396 10.0845 4.45688C10.2076 4.67415 10.2624 4.92353 10.2416 5.17241C10.2156 5.48339 10.0734 5.77318 9.84335 5.98405C9.6133 6.19493 9.31227 6.31142 9.0002 6.31034ZM11.5864 5.17241C11.3037 4.74074 10.9209 4.38367 10.4707 4.13154C10.0204 3.87941 9.516 3.73965 9.0002 3.72413C8.4668 3.72281 7.9415 3.85455 7.47185 4.10744C7.00221 4.36032 6.60306 4.72636 6.31055 5.17241C7.00672 5.94212 7.96673 6.42212 9.0002 6.51723C9.99685 6.39749 10.916 5.91954 11.5864 5.17241Z" fill="#FE2B54"/>
<path id="Vector_2" fill-rule="evenodd" clip-rule="evenodd" d="M8.68967 4.44824C8.57993 4.44824 8.47468 4.49184 8.39708 4.56944C8.31947 4.64704 8.27588 4.75229 8.27588 4.86203C8.27588 4.97178 8.31947 5.07703 8.39708 5.15463C8.47468 5.23223 8.57993 5.27583 8.68967 5.27583C8.79942 5.27583 8.90467 5.23223 8.98227 5.15463C9.05987 5.07703 9.10347 4.97178 9.10347 4.86203C9.10347 4.75229 9.05987 4.64704 8.98227 4.56944C8.90467 4.49184 8.79942 4.44824 8.68967 4.44824Z" fill="#FE2B54"/>
<path id="Vector_3" fill-rule="evenodd" clip-rule="evenodd" d="M0.620838 9.62078C0.797716 9.91793 1.00579 10.1954 1.24153 10.4484V10.5518C1.24153 11.5707 1.44221 12.5796 1.83212 13.5209C2.22202 14.4622 2.79352 15.3175 3.51398 16.038C4.23443 16.7584 5.08973 17.3299 6.03105 17.7198C6.97237 18.1098 7.98127 18.3104 9.00015 18.3104C10.019 18.3104 11.0279 18.1098 11.9692 17.7198C12.9106 17.3299 13.7659 16.7584 14.4863 16.038C15.2068 15.3175 15.7783 14.4622 16.1682 13.5209C16.5581 12.5796 16.7588 11.5707 16.7588 10.5518C16.9975 10.2639 17.2055 9.95186 17.3795 9.62078C17.4119 10.0685 17.4119 10.5179 17.3795 10.9656C17.3795 17.5863 9.00015 20.276 9.00015 20.276C9.00015 20.276 0.51739 17.7932 0.51739 10.9656C0.519314 10.5154 0.553887 10.066 0.620838 9.62078ZM7.03463 7.34492C8.37946 8.27596 8.79325 9.41389 8.79325 11.7932C8.79325 16.9656 6.72429 17.4829 6.72429 17.4829C6.72429 17.4829 3.41394 16.4484 3.41394 14.1725C3.41394 12.7242 5.37946 12.3104 5.37946 12.3104C5.37946 12.3104 -3.62054 9.82768 2.58636 3.31044C2.6898 4.86216 5.58636 6.41389 7.03463 7.44837V7.34492ZM14.0691 4.65527C12.67 3.41894 10.8672 2.73658 9.00015 2.73658C7.13305 2.73658 5.33031 3.41894 3.93118 4.65527C3.74841 4.49353 3.57568 4.3208 3.41394 4.13802C3.83342 3.64205 4.0867 3.02695 4.13808 2.3794C4.45283 2.5515 4.80243 2.6502 5.16071 2.66811C5.519 2.68603 5.87669 2.62269 6.20705 2.48285H6.31049C7.40328 2.09497 8.34494 1.37061 9.00015 0.413886C9.62317 1.35836 10.5282 2.08234 11.5864 2.48285H11.7933C12.1159 2.63861 12.4695 2.71951 12.8277 2.71951C13.186 2.71951 13.5396 2.63861 13.8622 2.48285C13.9341 3.09418 14.1862 3.67032 14.5864 4.13802C14.4278 4.32374 14.2548 4.49669 14.0691 4.65527ZM8.8967 8.7932C8.61726 7.92396 8.02822 7.18767 7.24153 6.72423C5.8967 5.5863 5.6898 5.17251 5.6898 5.17251C6.0009 4.56673 6.47654 4.06098 7.06209 3.7133C7.64764 3.36563 8.31937 3.19014 9.00015 3.20699C9.68093 3.19014 10.3527 3.36563 10.9382 3.7133C11.5238 4.06098 11.9994 4.56673 12.3105 5.17251C12.3105 5.17251 12.1036 5.7932 10.7588 6.72423C9.93307 7.16798 9.30508 7.90679 9.00015 8.7932H8.8967ZM14.5864 14.0691C14.5864 16.4484 11.1726 17.4829 11.1726 17.4829C11.1726 17.4829 9.31049 16.8622 9.31049 11.7932C9.31049 9.41389 9.62084 8.27596 10.9657 7.24147C12.3105 6.20699 15.3105 4.65527 15.4139 3.10354C21.6208 9.62078 12.6208 12.207 12.6208 12.207C12.6208 12.207 14.6898 12.6208 14.6898 13.9656L14.5864 14.0691ZM17.8967 8.48285C18.3105 6.82768 17.5864 4.96561 15.7243 3.00009C15.6823 2.96266 15.6331 2.93418 15.5798 2.9164C15.5264 2.89861 15.47 2.89189 15.4139 2.89664C15.3797 2.89086 15.3447 2.89086 15.3105 2.89664C15.2349 2.91407 15.1657 2.9524 15.1108 3.00728C15.0559 3.06216 15.0176 3.13136 15.0001 3.20699C14.9833 3.42776 14.9123 3.64097 14.7933 3.82768C14.4719 3.41183 14.2908 2.90474 14.276 2.3794C14.2682 2.31509 14.2454 2.2535 14.2095 2.1996C14.1736 2.14569 14.1255 2.10098 14.0691 2.06906C14.0022 2.04539 13.9292 2.04539 13.8622 2.06906C13.794 2.05512 13.7236 2.05512 13.6553 2.06906C13.4412 2.21135 13.1882 2.28364 12.9312 2.27595C12.583 2.29797 12.2336 2.26303 11.8967 2.17251L11.6898 2.06906C10.7259 1.70466 9.89588 1.05511 9.31049 0.206989C9.27166 0.162959 9.22391 0.127695 9.1704 0.103541C9.11689 0.0793866 9.05886 0.0668945 9.00015 0.0668945C8.94144 0.0668945 8.88341 0.0793866 8.8299 0.103541C8.77639 0.127695 8.72863 0.162959 8.6898 0.206989C8.07725 1.07199 7.20896 1.72321 6.20705 2.06906C5.87458 2.18964 5.52583 2.25939 5.17256 2.27595C4.88092 2.30691 4.58774 2.23362 4.34498 2.06906C4.27671 2.05512 4.20634 2.05512 4.13808 2.06906C4.06982 2.05512 3.99944 2.05512 3.93118 2.06906C3.87481 2.10098 3.82672 2.14569 3.79078 2.1996C3.75485 2.2535 3.73207 2.31509 3.72429 2.3794C3.6886 2.86895 3.50861 3.33694 3.20705 3.72423C3.09978 3.56972 3.02904 3.39285 3.00015 3.20699C2.99236 3.14267 2.96959 3.08109 2.93365 3.02718C2.89772 2.97328 2.84963 2.92857 2.79325 2.89664C2.72632 2.87298 2.65329 2.87298 2.58636 2.89664C2.5185 2.87912 2.44731 2.87912 2.37946 2.89664C0.310493 5.06906 -0.310196 6.93113 0.000148647 8.5863C0.0721567 8.87295 0.176263 9.15057 0.310493 9.41389C0.25412 9.44581 0.20603 9.49052 0.170095 9.54443C0.134159 9.59833 0.111382 9.65992 0.103597 9.72423C0.0744282 10.172 0.0744282 10.6213 0.103597 11.0691C0.103597 14.0691 1.55187 16.6553 4.44842 18.6208C5.82311 19.5223 7.32153 20.2193 8.8967 20.6897H9.1036C10.6516 20.1391 12.1143 19.3729 13.4484 18.4139C16.345 16.3449 17.8967 13.8622 17.8967 10.9656C17.8915 10.5156 17.857 10.0663 17.7933 9.62078C17.7855 9.55647 17.7627 9.49488 17.7268 9.44098C17.6908 9.38707 17.6427 9.34236 17.5864 9.31044C17.7206 9.04712 17.8247 8.7695 17.8967 8.48285Z" fill="#FE2B54"/>
</g>
<defs>
<clipPath id="clip0_1_828">
<rect width="18" height="20.6897" fill="white"/>
</clipPath>
</defs>
</svg>
